<?xml version="1.0" encoding="utf-8"?>
<!-- Generator: Adobe Illustrator 18.0.0, SVG Export Plug-In . SVG Version: 6.00 Build 0)  -->
<!DOCTYPE svg PUBLIC "-//W3C//DTD SVG 1.1//EN" "http://www.w3.org/Graphics/SVG/1.1/DTD/svg11.dtd">
<svg version="1.1" id="Layer_1" xmlns="http://www.w3.org/2000/svg" xmlns:xlink="http://www.w3.org/1999/xlink" x="0px" y="0px"
	 viewBox="0 0 316.9 192.2" enable-background="new 0 0 316.9 192.2" xml:space="preserve">
<g>
	<path fill="#00C8F7" d="M106.7,183.5c0,0,12.8-63.5,89.4-45.2c76.6,18.3,88.8,7,97.7-3.9c0,0-5.4,26.5-76.6,18.7
		C146,145.3,120.4,165.3,106.7,183.5z"/>
	<path fill="#00C8F7" d="M106.7,183.5c0,0,10.9-21.8,74.4-10.2c63.5,11.7,94.9-7,112.6-38.8c0,0,1.4,80-108.8,51.7
		C146.6,176.8,119.6,172.2,106.7,183.5z"/>
</g>
<path fill="#424143" d="M149.4,24.4c0.1-1.7,0.2-3.1,0.4-4.2c-1,0.2-2.2,0.3-3.5,0.3c-1.3,0-2.5-0.1-3.5-0.3
	c0.1,0.6,0.2,1.4,0.3,2.2c0.1,0.9,0.1,2.3,0.2,4.2c0.1,3.3,0.1,7.1,0.1,11.4v2.7c0,3.9-0.8,6.9-2.3,8.9c-1.6,2-3.8,3.1-6.8,3.1
	c-2.7,0-4.8-0.9-6.4-2.7c-1.5-1.8-2.3-4.4-2.3-7.6V38l0.1-11.4c0-1.9,0.1-3.3,0.1-4.1c0.1-0.9,0.2-1.6,0.4-2.3
	c-1,0.2-2.2,0.3-3.5,0.3c-1.3,0-2.5-0.1-3.5-0.3c0.1,0.6,0.2,1.4,0.3,2.2c0.1,0.9,0.1,2.3,0.2,4.2c0.1,3.3,0.1,7.1,0.1,11.4l0,6
	c0,3.9,1.1,7,3.2,9.3c2.1,2.3,5,3.4,8.6,3.4c4,0,7.3-1.4,10-4.1c0.9-0.9,1.7-2,2.4-3.1v0c-0.1,1.9-0.2,3.3-0.3,4.1
	c-0.1,0.9-0.2,1.6-0.3,2.3c0.9-0.1,2-0.2,3.1-0.2c1.2,0,2.3,0.1,3.2,0.2c-0.2-1.4-0.3-2.6-0.4-3.5c-0.1-0.9-0.1-1.9-0.1-3l0-16.5
	C149.3,29,149.3,26.1,149.4,24.4z M100.4,30.4c-4.5-10.3-8.1-18.8-10.8-25.8h-0.9h-0.9c-2.7,7-6.4,15.6-11.1,25.9
	C74,36.5,71.4,42,69.1,46.8c-1.6,3.3-2.8,5.6-3.4,6.8c-0.6,1.2-1.1,2-1.3,2.4c0.9-0.1,1.9-0.2,3-0.2c1.1,0,2.1,0.1,3,0.2
	c0.3-1.5,0.7-2.9,1.1-4.1c0.4-1.2,1.1-2.9,2-5.1c1.2-3.1,2.6-6.5,4.2-10c2.7-0.6,5.9-0.8,9.4-0.6c3.5,0,6.6,0.3,9.3,0.6l4.2,10
	c1,2.4,1.7,4.2,2.1,5.4c0.4,1.2,0.8,2.5,1.1,3.8c1.2-0.1,2.6-0.2,4.1-0.2c1.5,0,2.9,0.1,4.1,0.2l-4.4-9.2
	C105.5,41.9,103,36.5,100.4,30.4z M87,32.4c-2.7,0-5.1-0.1-7.3-0.4l0.8-1.9c2.3-5.5,4.5-10.4,6.6-14.8h0l6.5,14.9l0.7,1.8
	C92.1,32.2,89.6,32.3,87,32.4z M178.6,19.4c-4.6,0-8.4,1.9-11.3,5.7c-0.5,0.6-0.9,1.2-1.2,1.9c-0.1-7.7,0-14.6,0.2-20.6
	c0.1-2.1,0.1-3.6,0.2-4.5c0.1-0.9,0.1-1.5,0.2-2c-1,0.2-2.2,0.3-3.5,0.3c-1.3,0-2.5-0.1-3.5-0.3c0.1,0.5,0.2,1.1,0.3,2
	c0.1,0.9,0.1,2.3,0.2,4.5c0.1,6.3,0.2,13.6,0.2,21.9c0,8.9-0.1,16.6-0.2,23.2c0,1.2-0.1,2.3-0.2,3.2c-0.1,1-0.2,1.6-0.3,1.9l0.6,0.3
	l6.4-5.2l0.3,0.4c2.6,3.1,6,4.7,10.2,4.7c4.9,0,8.9-1.8,11.9-5.5c3-3.7,4.6-8.5,4.6-14.5c0-5.2-1.4-9.3-4.2-12.5
	C186.7,21,183.1,19.4,178.6,19.4z M184.2,49.5c-1.8,2.7-4.4,4.1-7.9,4.1c-3.2,0-5.7-1.2-7.4-3.6c-1.7-2.4-2.6-5.7-2.6-10.1h0
	c0-5.6,0.9-9.9,2.8-12.9c1.9-3,4.5-4.5,8-4.5c3.1,0,5.6,1.3,7.3,3.9c1.7,2.6,2.5,6.3,2.5,11.1C186.9,42.9,186,46.8,184.2,49.5z
	 M252.1,23.7c-2.6-2.8-6.5-4.2-11.5-4.2h-0.1c-5,0-9,1.7-12,5.2c-3.1,3.5-4.6,8.1-4.6,13.7c0,5.5,1.6,9.9,4.7,13.3
	c3.1,3.4,7.3,5.1,12.3,5.1c2.6,0,5.1-0.3,7.4-1c2.3-0.7,4.4-1.7,6.4-3.1c0.1-0.7,0.2-1.2,0.3-1.7c0.1-0.5,0.2-1,0.4-1.6l-0.7-0.8
	c-1.7,1.9-3.5,3.2-5.5,4.2c-2,0.9-4.2,1.4-6.5,1.4c-3.9,0-6.9-1.3-9-3.8c-2.1-2.5-3.2-6.1-3.2-10.7v-1.4h12.7c2.5,0,4.9,0.1,7.4,0.2
	c2.5,0.1,4.2,0.3,5.3,0.4v0l0.1-2c0-0.9,0-1.8-0.1-2.6C255.8,29.7,254.4,26.2,252.1,23.7z M249.3,35h-18.5c0.4-3.6,1.1-6.4,2.3-8.4
	c1.7-2.9,4.1-4.4,7.4-4.4c2.6,0,4.8,1,6.4,3.1c1.6,2.1,2.4,4.8,2.4,8.3V35z M291.9,20.4c-1.2,0-2.3-0.1-3.3-0.2
	c-0.1,1.7-0.4,3.4-1,5.1c-0.5,1.7-1.5,4.3-2.8,7.8c-1.5,4-3.2,8.3-5.1,12.9l-1,2.3h0l-4.3-9.9c-1.4-3.3-2.7-6.4-3.8-9.2
	c-0.9-2.2-1.5-3.9-1.9-5.1c-0.4-1.2-0.6-2.5-0.7-3.9c-1.2,0.1-2.6,0.2-4.2,0.2c-1.6,0-3-0.1-4.2-0.2c0.4,0.5,0.8,1.2,1.2,2.1
	c0.4,0.9,1.1,2.3,2.1,4.4c1.6,3.4,3.3,7.2,5.2,11.5c3,7,5.5,12.9,7.4,17.8l-4.9,8.9c-0.7,1.3-1.3,2.4-1.9,3.2
	c-0.6,0.9-1.3,1.9-2.3,3.2c1-0.1,2-0.2,3.3-0.2c1.2,0,2.3,0.1,3.3,0.2c0.2-0.9,0.4-1.8,0.7-2.7c0.3-0.9,0.8-2.1,1.4-3.8
	c2.2-5.7,4.9-12.1,8.1-19.4c3.2-7.2,6-13.5,8.6-18.8c1-2.2,1.8-3.7,2.2-4.5c0.5-0.9,0.8-1.5,1.1-1.9
	C294.2,20.3,293.2,20.4,291.9,20.4z M218.8,19.4c-2.7,0-5.2,1.5-7.7,4.4c-0.7,0.9-1.4,1.8-2.1,3v-0.2c0.1-2,0.2-3.5,0.3-4.3
	c0.1-0.9,0.2-1.6,0.3-2.1c-1.1,0.2-2.3,0.3-3.7,0.3s-2.6-0.1-3.7-0.3c0.1,0.6,0.2,1.4,0.3,2.3c0.1,0.9,0.1,2.3,0.2,4.2
	c0.1,3.3,0.1,7.1,0.1,11.4c0,4.3,0,8.2-0.1,11.6c0,1.9-0.1,3.3-0.2,4.2c-0.1,0.9-0.2,1.6-0.3,2.3c1-0.1,2.2-0.2,3.5-0.2
	c1.3,0,2.5,0.1,3.5,0.2c-0.1-0.4-0.2-1.1-0.2-1.9c-0.1-0.9-0.1-2.4-0.2-4.5c-0.1-3.4-0.2-7.3-0.1-11.6v-1.5c0-3.7,0.6-6.5,1.9-8.4
	c1.3-1.9,3.2-2.9,5.6-2.9c0.8,0,1.5,0.1,2.1,0.2c0.6,0.2,1.2,0.4,1.9,0.8c0-1.3,0.1-2.4,0.3-3.3c0.2-0.9,0.5-2,1-3.2
	c-0.4-0.1-0.9-0.2-1.3-0.3C219.8,19.5,219.3,19.4,218.8,19.4z"/>
<path fill="#2C3989" d="M293.6,137.9c2.1-12.5-5.6-9.9-7.4-12.3c-0.7-0.9-0.9-3.2-0.9-4.8V90.6c0-5.5-1.8-9.7-5.4-12.5
	c-3.6-2.9-8.8-4.3-15.8-4.3c-7.5,0-14.1,2.4-20,7.2l1.3,5.1c4.3-3.2,8.7-4.8,13.1-4.7c3.7,0,6.6,1,8.8,2.9c1.7,1.4,2.7,3.3,3.1,5.6
	c0.3,1.4,0.1,2.6-0.6,3.6c-0.7,0.9-1.8,1.7-3.4,2.1l-12.2,3.6c-5.4,1.6-9.3,3.6-11.8,6.2c-2.5,2.5-3.7,5.8-3.7,9.7
	c0,4.7,1.5,8.5,4.6,11.4c3.1,3,7,4.4,11.9,4.4c5.8,0,10.5-1.9,14.1-5.7c0.7-0.7,1.3-1.5,1.9-2.3c0.5,2,1.3,3.7,2.5,5
	c1.8,2,4.2,3.1,7.2,3.1c2,0,4-0.3,6-0.8c0,0,2.9-0.8,4.2,2.7c0.8,2.2-0.6,5-1.9,6.7L293.6,137.9z M270.6,112c-0.2,3.2-1,5.9-2.4,8
	c-1.6,2.4-3.6,3.6-6.2,3.6c-2.3,0-4-0.8-5.2-2.3c-1.2-1.5-1.8-3.8-1.8-6.9c0-3.5,0.9-6.3,2.7-8.5c1.8-2.2,4.5-3.9,8-4.9l4.9-1.4V112
	z M316.1,115.6L315.9,87l0.2-28.4c0.1-3.6,0.2-6.4,0.3-8.3c0.1-1.9,0.3-3.8,0.6-5.8c-2.5,0.2-5.3,0.3-8.4,0.3
	c-3.1,0-5.8-0.1-8.3-0.3c0.3,2,0.4,3.9,0.6,5.8c0.1,1.9,0.2,4.6,0.3,8.3c0.1,7.2,0.2,16.7,0.2,28.6l-0.2,28.4
	c-0.1,3.6-0.2,6.4-0.3,8.2c-0.1,1.9-0.3,3.8-0.6,5.8c2.4-0.2,5.3-0.3,8.4-0.3c3.1,0,5.8,0.1,8.3,0.3c-0.3-2-0.4-3.9-0.6-5.8
	C316.2,122,316.2,119.2,316.1,115.6z M141.9,124c-0.2,1.9-0.4,3.8-0.7,5.6c2.4-0.2,5.3-0.3,8.4-0.3c3.1,0,5.8,0.1,8.3,0.3
	c-0.3-1.9-0.5-3.7-0.6-5.6c-0.1-1.9-0.2-4.7-0.3-8.4l-0.1-13.2v-5.2c0-4.5,0.9-7.9,2.6-10.2c1.7-2.3,4.3-3.5,7.7-3.5
	c3.2,0,5.6,1,7.2,3c1.6,2,2.4,5,2.4,9l0.1,6.8l-0.1,13.2c-0.1,3.7-0.2,6.6-0.3,8.4c-0.2,1.9-0.4,3.7-0.8,5.6
	c2.4-0.2,5.2-0.3,8.4-0.3c3.1,0,5.8,0.1,8.3,0.3c-0.2-1.6-0.3-3.4-0.4-5.3c-0.1-1.9-0.2-4.8-0.2-8.8l-0.1-13.2v-8.9
	c0-6-1.6-10.8-4.8-14.4c-3.2-3.5-7.5-5.3-12.9-5.3c-5.6,0-10.5,2.1-14.8,6.3c-1,1-2,2.2-3,3.3l0.1-1.7c0.2-1.9,0.4-4.1,0.8-6.7
	c-2.3,0.2-5,0.3-8,0.3c-3,0-5.6-0.1-7.9-0.3c0.3,1.9,0.5,3.7,0.6,5.6c0.1,1.9,0.2,4.7,0.3,8.4l0.1,13.2l-0.1,13.2
	C142.2,119.3,142.1,122.1,141.9,124z M35.6,50.5c-0.9,0-3.1,0.1-6.6,0.3c-3.5,0.2-7.2,0.4-11.3,0.6c-2.5,0.1-5.4,0.1-8.9,0
	C5.4,51.3,2.4,51,0,50.6c0.2,1.7,0.3,3.6,0.4,5.4c0.1,1.9,0.2,4.7,0.3,8.6C0.9,72.2,1,80.8,1,90.4s-0.1,18.1-0.2,25.7
	c-0.1,3.9-0.2,6.7-0.3,8.6c-0.1,1.9-0.3,3.7-0.4,5.5c1.7-0.3,3.8-0.6,6.2-0.8c2.4-0.2,4.4-0.2,6.1-0.1c4.1,0.3,7.9,0.5,11.5,0.6
	c3.6,0.2,5.9,0.2,7,0.2c13.6,0,24-3.6,31.3-10.8c7.3-7.2,11-17.4,11-30.8c0-12.2-3.2-21.7-9.7-28.3C56.9,53.8,47.6,50.5,35.6,50.5z
	 M48,113.5c-4.4,5.8-10.9,8.7-19.4,8.7c-3.9,0-7.6-0.1-10.9-0.5c-0.2-8.9-0.3-19.4-0.3-31.4c0-12,0.1-22.4,0.3-31.4
	c3.2-0.3,6.7-0.4,10.5-0.4c8.6,0,15.2,2.5,19.7,7.5c4.5,5,6.7,12.3,6.7,21.9C54.7,99.2,52.5,107.7,48,113.5z M132.6,95.7
	c-0.7-6.1-2.7-11-6.2-14.8c-4.3-4.7-10.1-7.1-17.5-7.1c-8.2,0-14.8,2.6-19.6,7.8c-4.8,5.2-7.3,12.3-7.3,21.2
	c0,8.6,2.5,15.5,7.5,20.5c5,5,11.8,7.5,20.4,7.5c3.1,0,6.1-0.4,9.2-1.1c3-0.8,5.9-1.9,8.7-3.3l3-6.6l-1.1-1.2
	c-2.1,1.5-4.4,2.7-6.9,3.5c-2.5,0.8-5.2,1.2-8,1.2c-5.5,0-9.6-2-12.3-6c-2.4-3.4-3.7-8.2-4.1-14.4H115c3.6,0,7.1,0.1,10.6,0.3
	c3.5,0.2,5.9,0.4,7.3,0.7v-0.1c0.1-0.7,0.1-1.8,0.1-3.3C132.9,98.9,132.8,97.3,132.6,95.7z M116.5,97H98.4c0.1-5.5,0.9-9.8,2.3-12.8
	c1.6-3.5,4-5.2,7.1-5.2c2.8,0,5,1.4,6.4,4c1.4,2.7,2.2,6.7,2.2,11.9V97z M223.8,123.7c-1.1-1.4-1.6-3.4-1.6-6.2V81.3h1.8
	c1.6,0,3.3,0.1,5,0.3c1.7,0.2,2.9,0.4,3.7,0.7c-0.3-1.5-0.4-2.8-0.4-4c0-1.1,0.1-2.4,0.4-3.8c-0.8,0.3-2,0.5-3.7,0.7
	c-1.7,0.2-3.3,0.3-5,0.3h-1.8c0-4,0.2-7.8,0.4-11.3c0.2-3.5,0.4-6.2,0.6-7.9l-1.4-0.9l-6.7,3.1c-2.4,1-5.3,2.2-8.7,3.4
	c0.3,1.6,0.5,3.4,0.7,5.3c0.2,1.9,0.3,3.5,0.3,4.7v3.7l-2.2-0.1c-1.2,0-2.4-0.1-3.6-0.3c-1.2-0.1-1.9-0.3-2.4-0.5
	c0.2,1.4,0.3,2.7,0.3,3.7c0,1.1-0.1,2.4-0.3,3.8c0.4-0.1,1.2-0.3,2.3-0.4c1.1-0.1,2.3-0.2,3.6-0.3l2.3-0.1v35.2
	c0,5.1,1.1,8.8,3.3,11c2.2,2.2,5.9,3.4,11,3.4c3.9,0,7.7-0.7,11.6-2.2v-3.8c-1.3,0.6-3,0.9-4.9,0.9
	C226.4,125.7,224.9,125.1,223.8,123.7z"/>
<path fill="#FFFFFF" d="M202.8,78.3v0.1c0.3,0,0.5,0,0.8-0.1C203.4,78.3,203.1,78.3,202.8,78.3z"/>
<path fill="#FFFFFF" d="M229.2,78.2c-0.3,0-0.5,0.1-0.8,0.1c0.3,0,0.5,0,0.8,0.1V78.2z"/>
</svg>
