<?xml version="1.0" encoding="utf-8"?>
<!-- Generator: Adobe Illustrator 18.0.0, SVG Export Plug-In . SVG Version: 6.00 Build 0)  -->
<!DOCTYPE svg PUBLIC "-//W3C//DTD SVG 1.1//EN" "http://www.w3.org/Graphics/SVG/1.1/DTD/svg11.dtd">
<svg version="1.1" id="Layer_1" xmlns="http://www.w3.org/2000/svg" xmlns:xlink="http://www.w3.org/1999/xlink" x="0px" y="0px"
	 viewBox="0 0 115 115" enable-background="new 0 0 115 115" xml:space="preserve">
<g>
	<g>
		<path fill="#434244" d="M85.8,17.7c-4.5-5.1-10.7-7.8-17.5-7.8c-5.3,0-11,3.1-15.1,5.4c-1.5,0.8-3.6,2-4.2,2
			c-0.6-0.1-2.7-1.2-4.2-2c-4.1-2.3-9.8-5.4-15.1-5.4c-6.8,0-13,2.8-17.5,7.8C8,22.5,5.6,28.8,5.6,35.5c0,9.5,3.4,23.1,9.1,36.2
			c2.6,5.9,5.3,10.9,7.8,14.6c3.1,4.4,5.7,6.6,8.1,6.6c1,0,3-0.5,4-3.4c1-2.9,2-6.2,3-9.7C40.3,70.5,43.6,59,48.9,59h0.3
			c2.3,0,4.5,2,6.4,6.1c2,4.1,3.4,9.5,4.9,14.8c1,3.5,1.9,6.8,2.9,9.6c1,2.9,2.9,3.4,4,3.4c2.3,0,5-2.2,8.1-6.7
			c2.6-3.7,5.3-8.9,7.9-14.8c5.7-13.3,9.2-26.7,9.2-36C92.5,28.8,90.1,22.5,85.8,17.7 M66.8,24.5c-0.1,0-5.5-0.3-10.5-1.6
			c-2.2-0.6-4.9-1.8-4.9-2.1c0-0.3,2.9-2,3.6-2.4c3.8-2.1,9.1-5,13.4-5c12.9,0,20.5,11.2,20.5,22c0,8.7-3.4,21.9-8.9,34.5
			c-2.5,5.6-5.1,10.7-7.5,14.2c-2.8,4.1-4.6,5.2-5.1,5.1c-0.3-0.1-0.4-0.3-0.6-1c-1-2.7-1.9-5.9-2.8-9.3c-1.5-5.4-3-11-5.1-15.4
			c-2.6-5.5-5.8-8.2-9.6-8.2h-0.3c-3.7,0-6.8,2.6-9.4,8.1c-2.1,4.3-3.7,9.9-5.2,15.3c-1,3.4-1.9,6.7-2.9,9.5c-0.2,0.6-0.3,1-0.7,1.1
			c-0.3,0-1.7-0.1-5.1-5.1c-2.4-3.5-5.1-8.5-7.5-14c-5.4-12.6-8.9-25.9-8.9-34.8c0-10.8,7.7-22,20.5-22c3.3,0,7.7,1.5,11.8,4.1
			c0.6,0.4,1.4,1,2.2,1.6c0.3,0.3,0.6,0.5,0.9,0.7c0.9,0.7,2.2,1.6,3.7,2.5c0.6,0.4,1.4,0.9,2.3,1.2c3.2,1.4,6.6,2.1,10.1,2.1
			c3.6,0,6-0.6,6-0.6c0,0,0.5-0.2,0.5-0.3C67.3,24.5,66.8,24.5,66.8,24.5z"/>
	</g>
	<rect x="35.7" y="67.5" fill="#FFFFFF" stroke="#000000" stroke-miterlimit="10" width="55.9" height="16.2"/>
	<g>
		<path fill="#434244" d="M99.8,72.6c-1.7-0.7-4.3-4-7-7.5c-4.9-6.4-10.5-13.6-16.5-13.6c-7.9,0-12.3,4.8-13.8,6.9
			c-1.7-1.9-6.3-6.3-12.7-6.3c-5.1,0-11.3,7.2-16.7,13.6c-3.1,3.7-6.1,7.2-7.7,7.7c-0.3,0.1-0.5,0.4-0.5,0.7c0,0.3,0.2,0.6,0.4,0.8
			c2.7,1.2,5.4,4.6,8.6,8.6c4.4,5.5,9.4,11.7,16.1,14.3c4.1,1.5,8.4,2.3,13.3,2.3c4.7,0,9.3-0.7,12.7-1.3c5.9-1.1,14.8-12.8,20-19.8
			c1.7-2.2,3.4-4.6,3.9-4.9c0.3-0.1,0.4-0.4,0.4-0.7C100.3,72.9,100.1,72.7,99.8,72.6z M91.7,74.9c-3.5,2.3-12.3,7.1-26.4,7.7
			c-14.5,0.7-25.3-4.5-29.9-7.2c3.1-0.7,5.8-2.2,8.2-3.5c2.7-1.5,5.1-2.8,7.5-2.8c3,0,6,1,8.4,1.8c1.9,0.6,3.4,1.1,4.6,1
			c1-0.1,2.3-0.5,3.9-0.9c2.3-0.7,5.3-1.6,8.1-1.6c2,0,4.6,1.2,7.4,2.5C86.1,73.1,88.9,74.4,91.7,74.9z"/>
	</g>
</g>
</svg>
