<?xml version="1.0" encoding="utf-8"?>
<!-- Generator: Adobe Illustrator 18.0.0, SVG Export Plug-In . SVG Version: 6.00 Build 0)  -->
<!DOCTYPE svg PUBLIC "-//W3C//DTD SVG 1.1//EN" "http://www.w3.org/Graphics/SVG/1.1/DTD/svg11.dtd">
<svg version="1.1" id="Layer_1" xmlns="http://www.w3.org/2000/svg" xmlns:xlink="http://www.w3.org/1999/xlink" x="0px" y="0px"
	 viewBox="0 0 115 115" enable-background="new 0 0 115 115" xml:space="preserve">
<g>
	<path fill="#434244" d="M86.6,17.8c-4.5-5.1-10.7-7.9-17.5-7.9c-5.3,0-11,3.1-15.2,5.5c-1.5,0.8-3.6,2-4.2,2.1
		c-0.6-0.1-2.7-1.2-4.2-2.1c-4.2-2.3-9.9-5.5-15.2-5.5c-6.8,0-13,2.8-17.5,7.9C8.5,22.6,6.1,29,6.1,35.7c0,9.6,3.4,23.2,9.2,36.4
		c2.6,5.9,5.3,11,7.9,14.7c3.1,4.5,5.7,6.6,8.1,6.6c1,0,3-0.4,4-3.4c1-2.9,2-6.2,3-9.7c2.7-9.3,5.9-21,11.2-21h0.3
		c2.4,0,4.5,2,6.4,6.2c2,4.1,3.4,9.6,4.9,14.9c1,3.5,1.9,6.8,2.9,9.7c1,3,3,3.4,4,3.4c2.4,0,5-2.2,8.1-6.7c2.6-3.8,5.3-8.9,7.9-14.9
		c5.8-13.3,9.2-26.8,9.2-36.1C93.3,29,90.9,22.6,86.6,17.8 M67.5,24.7c-0.1,0-5.5-0.3-10.5-1.6c-2.2-0.6-4.9-1.8-4.9-2.1
		s2.9-2,3.6-2.4c3.8-2.1,9.1-5,13.5-5c12.9,0,20.6,11.3,20.6,22.2c0,8.7-3.4,22-8.9,34.7c-2.5,5.7-5.1,10.7-7.6,14.3
		c-2.8,4.1-4.6,5.3-5.2,5.2c-0.3-0.1-0.4-0.3-0.6-1c-1-2.7-1.9-6-2.8-9.4c-1.5-5.4-3-11.1-5.1-15.5c-2.6-5.5-5.8-8.2-9.7-8.2h-0.3
		c-3.7,0-6.8,2.7-9.4,8.1c-2.1,4.4-3.7,10-5.2,15.4c-1,3.5-1.9,6.7-2.9,9.5c-0.2,0.6-0.3,1-0.7,1.1c-0.3,0-1.7-0.1-5.2-5.1
		c-2.4-3.5-5.1-8.5-7.5-14.1c-5.5-12.6-8.9-26-8.9-35c0-10.9,7.7-22.2,20.6-22.2c3.4,0,7.8,1.5,11.8,4.1c0.6,0.4,1.4,1,2.2,1.6
		c0.3,0.3,0.6,0.5,0.9,0.7c0.9,0.7,2.2,1.6,3.7,2.5c0.6,0.4,1.4,0.9,2.3,1.2c3.2,1.4,6.7,2.1,10.2,2.1c3.6,0,6-0.6,6-0.6
		c0,0,0.5-0.1,0.5-0.3C68,24.7,67.5,24.7,67.5,24.7z"/>
</g>
<rect x="60" y="56.2" fill="#FFFFFF" width="41.3" height="35.4"/>
<g>
	<g id="add-circle">
		<path fill="#434244" d="M80.6,42.7c-17,0-30.9,13.9-30.9,30.9s13.9,30.9,30.9,30.9s30.9-13.9,30.9-30.9S97.6,42.7,80.6,42.7z
			 M96,76.7H83.7V89h-6.2V76.7H65.2v-6.2h12.3V58.1h6.2v12.3H96V76.7z"/>
	</g>
</g>
</svg>
