<?xml version="1.0" encoding="utf-8"?>
<!-- Generator: Adobe Illustrator 18.0.0, SVG Export Plug-In . SVG Version: 6.00 Build 0)  -->
<!DOCTYPE svg PUBLIC "-//W3C//DTD SVG 1.1//EN" "http://www.w3.org/Graphics/SVG/1.1/DTD/svg11.dtd">
<svg version="1.1" id="Layer_1" xmlns="http://www.w3.org/2000/svg" xmlns:xlink="http://www.w3.org/1999/xlink" x="0px" y="0px"
	 viewBox="0 0 115 115" enable-background="new 0 0 115 115" xml:space="preserve">
<g>
	<g>
		<path fill="#434244" d="M86.5,17.5C82,12.4,75.7,9.7,69,9.7c-5.3,0-11,3.1-15.2,5.4c-1.5,0.8-3.6,2-4.2,2.1
			c-0.6-0.1-2.7-1.2-4.2-2.1c-4.1-2.3-9.8-5.4-15.2-5.4c-6.8,0-13,2.8-17.5,7.8c-4.3,4.8-6.7,11.1-6.7,17.8c0,9.5,3.4,23.1,9.2,36.3
			c2.6,5.9,5.3,10.9,7.9,14.7c3.1,4.4,5.7,6.6,8.1,6.6c1,0,3-0.4,4-3.4c1-2.9,2-6.2,3-9.7c2.6-9.3,5.9-20.9,11.2-20.9h0.3
			c2.3,0,4.5,2,6.4,6.2c2,4.1,3.4,9.6,4.9,14.8c1,3.5,1.9,6.8,2.9,9.6c1,2.9,2.9,3.4,4,3.4c2.3,0,5-2.2,8.1-6.7
			c2.6-3.8,5.3-8.9,7.9-14.8c5.8-13.3,9.2-26.8,9.2-36C93.1,28.6,90.7,22.3,86.5,17.5 M67.3,24.3c-0.1,0-5.5-0.3-10.5-1.6
			C54.6,22.2,52,21,52,20.6c0-0.3,2.9-2,3.6-2.4c3.8-2.1,9.1-5,13.5-5c12.9,0,20.6,11.2,20.6,22.1c0,8.7-3.4,21.9-8.9,34.6
			c-2.5,5.6-5.1,10.7-7.6,14.2c-2.8,4.1-4.6,5.3-5.1,5.1c-0.3-0.1-0.4-0.3-0.6-1c-1-2.7-1.9-6-2.8-9.4c-1.5-5.4-3-11-5.1-15.4
			c-2.6-5.5-5.8-8.2-9.6-8.2h-0.3c-3.7,0-6.8,2.6-9.4,8.1c-2.1,4.4-3.7,10-5.2,15.4c-1,3.5-1.9,6.7-2.9,9.5c-0.2,0.6-0.3,1-0.7,1.1
			c-0.3,0-1.7-0.1-5.2-5.1c-2.4-3.5-5.1-8.5-7.5-14.1c-5.5-12.6-8.9-26-8.9-34.9c0-10.9,7.7-22.1,20.6-22.1c3.4,0,7.8,1.5,11.8,4.1
			c0.6,0.4,1.4,1,2.2,1.6c0.3,0.3,0.6,0.5,0.9,0.7c0.9,0.7,2.2,1.6,3.7,2.5c0.6,0.4,1.4,0.9,2.3,1.2c3.2,1.4,6.6,2.1,10.2,2.1
			c3.6,0,6-0.6,6-0.6c0,0,0.5-0.1,0.5-0.3C67.9,24.3,67.3,24.3,67.3,24.3z"/>
	</g>
	<rect x="54.1" y="60.3" fill="#FFFFFF" width="56.6" height="41"/>
	<g>
		<g id="_x31_5_38_">
			<g>
				<path fill="#434244" d="M65.7,54.8h0.9c1.4,0,2.6-1.2,2.6-2.6v-7.1v-2.6c0-1.4-1.2-2.6-2.6-2.6h-0.9c-1.4,0-2.6,1.2-2.6,2.6v2.6
					v7.1C63.2,53.6,64.3,54.8,65.7,54.8z"/>
				<path fill="#434244" d="M98.7,54.7h0.9c1.4,0,2.6-1.2,2.6-2.6v-7.7v-2.1c0-1.4-1.2-2.6-2.6-2.6h-0.9c-1.4,0-2.6,1.2-2.6,2.6v2.1
					v7.7C96.2,53.6,97.3,54.7,98.7,54.7z"/>
				<path fill="#434244" d="M110.9,45.1h-6.6v7.7c0,2.6-2.1,4-4.7,4h-0.9c-2.6,0-4.7-2.1-4.7-4.7v-7H71.3v7.1c0,2.6-2.1,4.7-4.7,4.7
					h-0.9c-2.6,0-4.7-2.1-4.7-4.7v-7.1H54c-2.3,0-4.2,1.9-4.2,4.2v50.5c0,2.3,1.9,4.2,4.2,4.2h56.9c2.3,0,4.2-1.9,4.2-4.2V49.3
					C115.1,47,113.2,45.1,110.9,45.1z M110.9,99.8H54V61.7h56.9V99.8L110.9,99.8z"/>
				<path fill="#434244" d="M84.6,74.4h7.5c0.3,0,0.5-0.2,0.5-0.5v-6.5c0-0.3-0.2-0.5-0.5-0.5h-7.5c-0.3,0-0.5,0.2-0.5,0.5v6.5
					C84.1,74.2,84.3,74.4,84.6,74.4z"/>
				<path fill="#434244" d="M96.8,74.4h7.5c0.3,0,0.5-0.2,0.5-0.5v-6.5c0-0.3-0.2-0.5-0.5-0.5h-7.5c-0.3,0-0.5,0.2-0.5,0.5v6.5
					C96.3,74.2,96.6,74.4,96.8,74.4z"/>
				<path fill="#434244" d="M60.1,85.1h7.5c0.3,0,0.5-0.2,0.5-0.5v-6.5c0-0.3-0.2-0.5-0.5-0.5h-7.5c-0.3,0-0.5,0.2-0.5,0.5v6.5
					C59.6,84.8,59.8,85.1,60.1,85.1z"/>
				<path fill="#434244" d="M72.4,85.1h7.5c0.3,0,0.5-0.2,0.5-0.5v-6.5c0-0.3-0.2-0.5-0.5-0.5h-7.5c-0.3,0-0.5,0.2-0.5,0.5v6.5
					C71.8,84.8,72.1,85.1,72.4,85.1z"/>
				<path fill="#434244" d="M84.6,85.1h7.5c0.3,0,0.5-0.2,0.5-0.5v-6.5c0-0.3-0.2-0.5-0.5-0.5h-7.5c-0.3,0-0.5,0.2-0.5,0.5v6.5
					C84.1,84.8,84.3,85.1,84.6,85.1z"/>
				<path fill="#434244" d="M96.8,85.1h7.5c0.3,0,0.5-0.2,0.5-0.5v-6.5c0-0.3-0.2-0.5-0.5-0.5h-7.5c-0.3,0-0.5,0.2-0.5,0.5v6.5
					C96.3,84.8,96.6,85.1,96.8,85.1z"/>
				<path fill="#434244" d="M67.6,88.1h-7.5c-0.3,0-0.5,0.2-0.5,0.5v6.5c0,0.3,0.2,0.5,0.5,0.5h7.5c0.3,0,0.5-0.2,0.5-0.5v-6.5
					C68.2,88.4,67.9,88.1,67.6,88.1z"/>
				<path fill="#434244" d="M79.9,88.1h-7.5c-0.3,0-0.5,0.2-0.5,0.5v6.5c0,0.3,0.2,0.5,0.5,0.5h7.5c0.3,0,0.5-0.2,0.5-0.5v-6.5
					C80.4,88.4,80.2,88.1,79.9,88.1z"/>
				<path fill="#434244" d="M92.1,88.1h-7.5c-0.3,0-0.5,0.2-0.5,0.5v6.5c0,0.3,0.2,0.5,0.5,0.5h7.5c0.3,0,0.5-0.2,0.5-0.5v-6.5
					C92.7,88.4,92.4,88.1,92.1,88.1z"/>
				<path fill="#434244" d="M104.4,88.1h-7.5c-0.3,0-0.5,0.2-0.5,0.5v6.5c0,0.3,0.2,0.5,0.5,0.5h7.5c0.3,0,0.5-0.2,0.5-0.5v-6.5
					C104.9,88.4,104.7,88.1,104.4,88.1z"/>
			</g>
		</g>
	</g>
</g>
</svg>
